<?xml version="1.0" standalone="no"?>
<!DOCTYPE svg PUBLIC "-//W3C//DTD SVG 20010904//EN"
 "http://www.w3.org/TR/2001/REC-SVG-20010904/DTD/svg10.dtd">
<svg version="1.0" xmlns="http://www.w3.org/2000/svg"
 width="1024.000000pt" height="1024.000000pt" viewBox="0 0 1024.000000 1024.000000"
 preserveAspectRatio="xMidYMid meet">

<g transform="translate(0.000000,1024.000000) scale(0.100000,-0.100000)"
fill="#000000" stroke="none">
<path d="M780 10230 c0 -5 -7 -10 -15 -10 -41 0 -193 -62 -280 -114 -237 -142
-436 -438 -462 -689 -3 -32 -10 -60 -14 -63 -12 -7 -12 -8461 0 -8468 4 -3 11
-31 14 -63 27 -256 219 -542 463 -690 68 -42 202 -98 257 -108 20 -4 37 -11
37 -16 0 -5 1816 -9 4340 -9 2524 0 4340 4 4340 9 0 5 17 12 37 16 55 10 189
66 257 108 244 148 436 434 463 690 3 32 10 60 14 63 12 7 12 8461 0 8468 -4
3 -11 31 -14 63 -26 251 -225 547 -462 689 -87 52 -239 114 -280 114 -8 0 -15
5 -15 10 0 7 -1453 10 -4340 10 -2887 0 -4340 -3 -4340 -10z m2764 -4023 c16
-12 18 -28 17 -118 -2 -138 -3 -139 -157 -139 -142 0 -144 2 -144 137 0 130 4
133 153 133 78 0 119 -4 131 -13z m2303 -361 c168 -25 286 -102 342 -220 29
-62 47 -162 34 -182 -9 -14 -271 -23 -290 -11 -7 5 -13 18 -13 30 0 34 -35 84
-72 103 -24 13 -58 18 -128 18 -104 1 -147 -11 -192 -52 -23 -21 -28 -34 -28
-72 0 -82 39 -97 289 -110 203 -11 302 -37 390 -100 16 -11 31 -20 34 -20 3 0
8 30 11 68 7 95 17 151 27 158 5 3 9 16 9 28 0 13 16 55 35 93 70 141 212 238
395 271 85 15 100 15 188 0 186 -32 321 -127 394 -278 20 -41 39 -85 43 -97 3
-13 11 -23 16 -23 5 0 9 10 9 23 0 33 51 135 97 192 79 100 235 176 387 190
187 17 399 -78 495 -220 48 -71 110 -243 95 -266 -3 -5 -73 -9 -155 -9 -134 0
-150 2 -155 18 -42 133 -105 182 -235 182 -88 0 -150 -27 -191 -84 -57 -79
-62 -99 -62 -256 0 -138 1 -148 27 -202 44 -93 119 -138 227 -138 116 0 185
48 233 163 l16 37 150 0 151 0 0 -25 c0 -13 -4 -34 -9 -47 -5 -13 -19 -50 -32
-83 -81 -216 -257 -329 -509 -329 -115 0 -201 18 -280 59 -55 28 -152 109
-180 150 -31 45 -70 138 -70 168 0 35 -16 16 -39 -47 -38 -101 -95 -174 -181
-231 -115 -76 -189 -98 -335 -99 -101 0 -130 4 -185 24 -105 37 -124 47 -178
87 -58 44 -81 71 -112 131 -18 34 -25 40 -36 31 -8 -6 -14 -18 -14 -26 0 -30
-74 -117 -135 -159 -37 -25 -122 -58 -195 -75 -34 -8 -119 -13 -220 -13 -158
1 -169 2 -257 33 -155 53 -236 117 -285 227 -26 61 -37 172 -17 185 23 14 275
11 287 -3 6 -7 13 -29 17 -50 16 -87 110 -123 304 -116 128 4 154 11 199 51
37 34 27 113 -19 137 -32 17 -177 40 -259 40 -147 1 -330 67 -398 145 -55 61
-75 113 -81 200 l-6 80 -116 0 c-112 0 -118 -1 -153 -29 -21 -15 -41 -39 -47
-53 -5 -13 -9 -199 -9 -423 l0 -399 -140 -3 c-77 -2 -145 -1 -150 0 -6 2 -10
72 -10 175 l-1 172 -25 -54 c-74 -157 -174 -246 -339 -302 -60 -20 -238 -17
-300 5 -156 54 -263 144 -306 254 -13 34 -27 62 -31 62 -5 0 -8 -100 -8 -223
0 -193 -2 -229 -19 -274 -39 -108 -104 -167 -221 -202 -27 -8 -253 -16 -327
-12 -10 1 -13 38 -13 151 l0 150 85 0 c106 0 157 18 179 65 14 29 16 107 16
634 l0 601 23 5 c12 3 139 4 281 3 l260 -3 -3 -305 c-3 -414 12 -492 111 -558
37 -24 51 -27 128 -27 77 0 91 3 127 27 58 38 91 111 103 224 5 49 10 211 10
360 0 239 2 273 16 278 9 3 69 6 134 6 65 0 125 -3 134 -6 13 -5 16 -23 16
-90 0 -46 3 -84 6 -84 8 0 42 40 58 70 21 37 112 87 180 99 80 15 379 14 393
0 7 -7 9 -39 6 -90 -6 -88 3 -100 35 -45 43 72 160 136 297 161 93 17 161 18
272 1z"/>
<path d="M6669 5540 c-92 -49 -148 -167 -149 -316 -1 -146 45 -260 124 -309
46 -28 57 -30 141 -30 83 0 95 2 134 28 90 60 127 165 119 340 -7 150 -52 243
-140 288 -52 26 -178 26 -229 -1z"/>
</g>
</svg>
